<?xml version="1.0" standalone="no"?>
<!DOCTYPE svg PUBLIC "-//W3C//DTD SVG 20010904//EN"
 "http://www.w3.org/TR/2001/REC-SVG-20010904/DTD/svg10.dtd">
<svg version="1.0" xmlns="http://www.w3.org/2000/svg"
 width="1080.000000pt" height="1080.000000pt" viewBox="0 0 1080.000000 1080.000000"
 preserveAspectRatio="xMidYMid meet">

<g transform="translate(0.000000,1080.000000) scale(0.100000,-0.100000)"
fill="#000000" stroke="none">
<path d="M4454 9702 c-133 -46 -193 -148 -193 -327 -1 -110 19 -173 58 -195
21 -11 21 -15 21 -438 l-1 -427 -51 -30 c-124 -71 -137 -247 -27 -340 18 -15
43 -31 56 -36 l24 -9 -1 -485 c-1 -292 3 -491 9 -502 5 -10 60 -90 121 -178
l112 -160 -93 -11 c-52 -6 -108 -18 -125 -27 -83 -43 -144 -144 -144 -239 l0
-57 -302 -3 c-292 -3 -305 -4 -353 -26 -66 -31 -139 -109 -165 -178 -20 -55
-20 -60 -20 -2469 0 -2403 0 -2415 20 -2469 27 -72 88 -139 158 -173 l57 -28
1790 0 1790 0 51 27 c57 30 112 87 146 150 l23 43 0 2450 0 2450 -23 43 c-35
66 -88 119 -150 149 l-57 28 -302 3 -303 3 0 53 c0 158 -100 256 -278 273
l-83 8 123 175 123 175 3 493 c2 429 4 492 17 492 9 0 35 18 60 41 106 98 93
257 -27 334 l-47 30 0 429 -1 428 25 20 c36 28 47 80 43 203 -3 96 -6 117 -31
168 -19 38 -44 69 -74 92 -88 67 -51 65 -1037 65 -824 -1 -895 -2 -942 -18z
m1853 -214 c18 -17 23 -32 23 -75 l0 -53 -930 0 -930 0 0 49 c0 34 6 56 21 75
l20 26 887 0 886 0 23 -22z m-47 -753 l0 -415 -857 2 -858 3 -3 413 -2 412
860 0 860 0 0 -415z m145 -625 c4 -7 -333 -10 -1005 -10 -672 0 -1009 3 -1005
10 4 7 350 10 1005 10 655 0 1001 -3 1005 -10z m-145 -635 l0 -415 -857 2
-858 3 -3 413 -2 412 860 0 860 0 0 -415z m-161 -712 c-34 -49 -77 -112 -97
-140 l-35 -53 -566 0 -566 1 -92 133 c-51 74 -93 137 -93 140 0 3 340 6 755 6
l755 0 -61 -87z m256 -428 c17 -16 25 -35 25 -60 l0 -35 -975 0 -975 0 0 44
c0 82 -74 76 973 76 l928 0 24 -25z m806 -321 c63 -32 59 142 59 -2449 0
-2554 3 -2411 -51 -2449 -21 -15 -172 -16 -1772 -16 l-1749 0 -28 30 c-18 20
-31 46 -35 73 -3 23 -5 1102 -3 2397 3 2220 4 2356 20 2380 10 13 28 30 40 37
18 10 386 12 1756 13 1554 0 1736 -2 1763 -16z"/>
<path d="M4497 5820 c-99 -25 -191 -101 -238 -196 -101 -204 3 -446 220 -514
79 -25 142 -25 220 -1 262 81 347 416 154 609 -70 70 -143 103 -240 108 -43 2
-95 -1 -116 -6z m173 -221 c76 -43 104 -150 57 -220 -34 -51 -82 -79 -135 -79
-126 0 -202 134 -139 244 42 73 140 98 217 55z"/>
<path d="M6124 5821 c-61 -16 -130 -56 -175 -102 -179 -184 -124 -481 111
-593 57 -27 75 -31 150 -31 152 1 267 71 332 203 30 61 33 74 33 162 0 87 -3
101 -32 161 -62 126 -176 200 -313 205 -41 2 -89 0 -106 -5z m166 -219 c53
-26 80 -74 80 -141 0 -103 -71 -168 -172 -159 -52 5 -89 27 -122 72 -29 39
-29 133 0 173 52 70 139 93 214 55z"/>
<path d="M4019 4691 c-43 -44 -43 -100 2 -146 l29 -30 1336 -3 c1234 -2 1338
-1 1371 15 68 32 80 119 21 168 l-30 25 -1350 0 -1350 0 -29 -29z"/>
<path d="M4033 4310 c-34 -20 -53 -66 -45 -107 2 -11 17 -34 34 -50 l29 -28
1337 -3 c1288 -2 1338 -2 1372 16 25 13 39 31 49 59 13 37 13 43 -5 74 -11 19
-31 40 -45 46 -19 10 -318 13 -1359 13 -1308 0 -1336 0 -1367 -20z"/>
<path d="M3828 3924 c-15 -8 -32 -23 -38 -34 -7 -12 -10 -438 -10 -1282 0
-1182 2 -1264 18 -1284 9 -12 27 -27 39 -33 16 -8 447 -11 1563 -11 1661 0
1582 -2 1610 49 14 27 14 2535 0 2562 -28 51 52 49 -1612 49 -1342 -1 -1547
-3 -1570 -16z m255 -248 c6 -64 33 -120 79 -162 52 -50 95 -67 181 -72 l77 -5
0 -74 c0 -86 16 -125 61 -149 40 -20 88 -12 120 22 21 22 24 37 27 115 l4 89
57 0 c163 0 281 106 281 252 l0 38 429 0 428 0 6 -54 c6 -64 33 -120 79 -162
52 -50 95 -67 181 -72 l77 -5 0 -74 c0 -86 16 -125 61 -149 40 -20 88 -12 120
22 21 22 24 37 27 114 l4 88 77 4 c125 7 210 66 246 169 8 23 15 59 15 80 l0
39 50 0 50 0 0 -1120 0 -1120 -45 0 -45 0 0 125 c0 93 -4 134 -15 155 -9 17
-19 30 -23 30 -4 0 -15 7 -24 14 -17 12 -16 30 17 332 42 371 43 406 21 459
-22 52 -51 82 -108 111 -47 24 -51 24 -335 24 l-288 0 -52 -30 c-68 -39 -105
-94 -111 -163 -2 -29 13 -197 32 -373 20 -177 36 -329 36 -338 0 -15 -74 -16
-872 -16 -812 0 -874 -2 -894 -18 -38 -30 -44 -56 -44 -186 l0 -126 -45 0 -45
0 0 1120 0 1120 49 0 48 0 6 -54z m677 26 c0 -50 -8 -52 -235 -52 -227 0 -235
2 -235 52 l0 28 235 0 235 0 0 -28z m1750 0 c0 -50 -8 -52 -235 -52 -227 0
-235 2 -235 52 l0 28 235 0 235 0 0 -28z m-4 -1170 c8 -5 1 -101 -27 -352 -21
-190 -39 -348 -39 -352 0 -5 -79 -8 -175 -8 -96 0 -175 3 -175 8 0 4 -16 159
-36 344 -20 185 -34 344 -31 352 6 14 37 16 239 16 128 0 238 -4 244 -8z m14
-982 l0 -60 -1120 0 -1120 0 0 60 0 60 1120 0 1120 0 0 -60z"/>
</g>
</svg>
