<?xml version="1.0" standalone="no"?>
<!DOCTYPE svg PUBLIC "-//W3C//DTD SVG 20010904//EN"
 "http://www.w3.org/TR/2001/REC-SVG-20010904/DTD/svg10.dtd">
<svg version="1.0" xmlns="http://www.w3.org/2000/svg"
 width="1080.000000pt" height="1080.000000pt" viewBox="0 0 1080.000000 1080.000000"
 preserveAspectRatio="xMidYMid meet">

<g transform="translate(0.000000,1080.000000) scale(0.100000,-0.100000)"
fill="#000000" stroke="none">
<path d="M1412 6885 c-149 -33 -265 -143 -313 -296 -18 -58 -19 -115 -19
-1313 0 -1381 -3 -1315 63 -1425 62 -103 171 -178 293 -200 77 -15 7771 -15
7859 -1 126 20 244 101 308 211 59 101 57 49 57 1402 0 1384 3 1323 -69 1434
-66 102 -155 164 -267 188 -101 21 -7814 21 -7912 0z m6959 -398 c325 -86 592
-293 744 -579 91 -172 131 -320 141 -518 28 -575 -391 -1093 -966 -1196 -109
-19 -301 -19 -411 0 -450 80 -814 423 -930 874 -27 108 -41 307 -29 411 34
273 140 493 333 690 165 168 343 269 566 320 47 11 95 22 106 25 11 3 94 3
185 2 138 -3 181 -7 261 -29z m-2872 -722 c44 -50 43 -95 -3 -141 l-34 -34
-1736 0 c-1530 0 -1740 2 -1766 15 -37 19 -50 43 -50 95 0 33 6 48 29 71 l29
29 1750 0 1750 0 31 -35z m-10 -441 c55 -46 51 -131 -8 -171 -25 -17 -109 -18
-1726 -21 -935 -2 -1720 0 -1744 3 -63 9 -101 49 -101 107 0 44 18 76 55 96
14 8 513 11 1757 12 l1736 0 31 -26z m-36 -435 c26 -7 44 -21 57 -42 24 -39
25 -68 5 -107 -33 -65 99 -60 -1809 -58 l-1735 3 -30 29 c-57 55 -34 153 42
175 47 14 3421 14 3470 0z m1087 -230 c98 -44 160 -138 160 -244 0 -147 -118
-265 -265 -265 -98 0 -193 58 -237 144 -29 58 -35 154 -13 213 54 141 221 213
355 152z"/>
<path d="M7940 6299 c-98 -15 -251 -71 -342 -125 -166 -100 -324 -282 -398
-459 -113 -272 -87 -603 69 -865 79 -133 250 -289 396 -363 28 -13 86 -36 130
-50 344 -108 713 -19 967 235 294 294 365 727 181 1102 -122 250 -358 441
-624 506 -99 24 -285 33 -379 19z m329 -225 c89 -20 216 -85 293 -148 120 -99
218 -259 252 -413 20 -90 20 -236 1 -328 -31 -147 -132 -310 -252 -407 -120
-98 -235 -148 -383 -168 -146 -20 -278 4 -430 77 -80 39 -108 59 -186 137 -76
77 -98 106 -137 186 -57 115 -76 186 -84 305 -24 372 265 723 637 775 80 11
203 4 289 -16z"/>
<path d="M1510 3090 l0 -340 29 -32 29 -33 549 -3 c301 -2 562 0 579 3 18 3
44 17 58 32 l26 26 0 343 0 344 -105 0 -105 0 0 -270 0 -270 -425 0 -425 0 0
270 0 270 -105 0 -105 0 0 -340z"/>
<path d="M7960 3086 l0 -343 27 -27 c14 -14 36 -29 47 -32 12 -2 272 -3 579
-2 l559 3 29 33 29 32 0 340 0 340 -105 0 -105 0 0 -270 0 -270 -425 0 -425 0
0 270 0 270 -105 0 -105 0 0 -344z"/>
</g>
</svg>
