<?xml version="1.0" standalone="no"?>
<!DOCTYPE svg PUBLIC "-//W3C//DTD SVG 20010904//EN"
 "http://www.w3.org/TR/2001/REC-SVG-20010904/DTD/svg10.dtd">
<svg version="1.0" xmlns="http://www.w3.org/2000/svg"
 width="1080.000000pt" height="1080.000000pt" viewBox="0 0 1080.000000 1080.000000"
 preserveAspectRatio="xMidYMid meet">

<g transform="translate(0.000000,1080.000000) scale(0.100000,-0.100000)"
fill="#000000" stroke="none">
<path d="M4692 9564 c-56 -28 -100 -72 -134 -137 l-23 -42 -3 -973 -2 -974
-38 6 c-20 3 -370 33 -777 67 l-740 62 -530 -225 c-291 -124 -613 -260 -715
-301 -102 -41 -220 -91 -262 -111 l-78 -35 0 -2650 0 -2651 22 -4 c13 -3 32
-7 43 -8 18 -3 20 -13 25 -101 4 -83 8 -101 24 -113 16 -11 65 -14 233 -14
200 0 214 1 233 20 15 15 20 33 20 75 0 45 3 55 17 55 9 0 229 -29 488 -65
325 -45 495 -64 550 -63 l80 3 5 -78 c4 -63 9 -82 24 -93 16 -11 64 -14 227
-14 257 0 252 -2 257 119 2 45 5 82 6 82 2 2 925 28 1269 35 l337 7 0 -97 c0
-90 2 -99 25 -121 l24 -25 301 0 301 0 24 25 c23 22 25 31 25 125 l0 100 1034
0 1034 0 4 -101 c3 -96 4 -102 31 -125 l28 -24 278 0 c345 0 324 -9 331 142
l5 103 255 5 c253 5 255 5 306 32 63 33 116 91 140 154 19 48 19 146 19 3889
l0 3840 -21 46 c-30 65 -86 123 -147 153 l-51 26 -2226 0 -2226 0 -52 -26z
m483 -86 c-27 -5 -88 -16 -135 -24 -46 -9 -113 -27 -148 -41 -115 -47 -203
-151 -219 -261 l-7 -47 -7 40 c-10 52 7 151 33 193 59 96 227 149 478 149 l55
1 -50 -10z m3715 2 c143 -11 232 -38 288 -86 65 -55 85 -103 89 -209 l3 -90
-20 73 c-24 89 -47 129 -106 181 -72 63 -159 92 -394 130 -51 8 -52 9 -15 10
22 0 92 -4 155 -9z m-1652 -191 c293 -56 566 -207 777 -431 194 -206 326 -471
371 -743 21 -131 21 -351 -1 -475 -31 -181 -107 -376 -203 -525 -208 -323
-522 -543 -902 -632 -105 -25 -132 -27 -320 -27 -203 0 -206 0 -340 36 -195
51 -380 142 -530 260 l-68 53 -6 100 c-3 55 -7 148 -9 208 l-2 107 20 -27
c134 -186 352 -346 574 -422 392 -134 853 -35 1164 250 176 161 314 415 358
659 19 105 17 315 -5 424 -69 351 -303 664 -617 822 -381 191 -826 163 -1184
-75 -148 -98 -302 -275 -387 -446 -155 -308 -164 -697 -23 -1002 l35 -75 -33
5 c-17 3 -85 9 -149 13 l-117 6 -14 37 c-22 55 -44 137 -63 236 -27 137 -25
397 5 535 64 302 181 519 391 731 159 159 307 257 509 334 236 90 513 113 769
64z m-19 -484 c176 -48 328 -140 452 -274 343 -369 344 -931 3 -1300 -128
-138 -284 -233 -464 -282 -72 -20 -109 -23 -245 -24 -185 0 -255 15 -410 89
-391 186 -613 631 -526 1052 49 239 199 468 392 602 110 75 262 136 408 163
86 15 287 2 390 -26z m-3904 -1337 l140 -13 -90 -6 c-49 -4 -129 -7 -176 -8
l-86 -1 -7 -61 c-3 -34 -6 -80 -6 -103 -1 -81 -18 -11 -25 103 l-7 114 58 -6
c33 -4 122 -12 199 -19z m2613 -190 c8 -8 12 -43 11 -97 -1 -48 -3 -77 -5 -66
-30 149 -31 151 -145 164 l-74 8 101 2 c66 1 104 -3 112 -11z m-1154 -175
c508 -113 823 -680 675 -1214 -84 -304 -320 -554 -609 -647 -482 -155 -987
142 -1127 664 -24 89 -27 116 -27 269 0 156 3 177 28 260 85 282 252 487 491
601 186 90 370 111 569 67z m2516 -898 c849 -137 1524 -758 1725 -1588 42
-174 58 -340 52 -552 -10 -378 -99 -687 -296 -1023 -149 -256 -435 -544 -698
-704 -177 -108 -418 -208 -607 -253 -167 -40 -301 -55 -484 -55 -268 0 -488
36 -713 117 l-96 34 -7 211 c-4 115 -5 212 -3 215 3 2 28 -7 55 -21 132 -67
342 -132 507 -157 108 -17 401 -17 495 0 277 48 493 133 711 280 712 479 956
1399 578 2177 -233 479 -673 813 -1219 925 -100 21 -142 24 -325 23 -178 0
-226 -4 -315 -22 -206 -44 -405 -118 -540 -201 l-47 -29 -7 111 c-3 62 -7 159
-7 217 l-2 105 84 37 c180 81 428 146 639 167 124 13 399 5 520 -14z m-82
-691 c179 -31 318 -82 474 -174 369 -220 613 -583 678 -1010 17 -111 14 -322
-5 -436 -32 -184 -116 -398 -218 -549 -208 -310 -508 -512 -882 -596 -133 -30
-370 -37 -505 -14 -185 31 -372 103 -537 207 -35 22 -63 41 -64 41 0 1 -18
502 -39 1112 l-39 1110 32 29 c154 137 468 268 707 295 103 12 285 5 398 -15z
m-2333 -542 c112 -25 275 -88 380 -149 434 -250 708 -693 756 -1223 70 -765
-430 -1474 -1151 -1632 -130 -29 -406 -31 -529 -5 -295 63 -519 185 -731 397
-220 220 -359 487 -426 817 -28 137 -26 483 4 616 123 553 488 976 986 1142
158 53 244 65 446 60 126 -2 200 -9 265 -23z"/>
<path d="M6943 9250 c-34 -14 -56 -54 -48 -90 13 -60 86 -80 130 -35 31 30 32
66 3 99 -27 29 -55 38 -85 26z"/>
<path d="M5625 7935 c-29 -28 -32 -70 -9 -103 20 -29 85 -31 114 -2 35 35 25
92 -21 115 -39 21 -56 19 -84 -10z"/>
<path d="M8235 7948 c-30 -16 -45 -39 -45 -70 0 -66 97 -95 139 -42 28 36 26
60 -8 95 -31 31 -53 35 -86 17z"/>
<path d="M6933 6650 c-45 -19 -55 -72 -22 -114 16 -20 29 -26 59 -26 66 0 103
70 63 119 -21 24 -68 35 -100 21z"/>
<path d="M6889 8146 c-61 -21 -108 -56 -137 -99 -44 -66 -52 -93 -52 -171 0
-61 5 -83 28 -127 47 -89 145 -149 245 -149 103 0 215 75 257 172 31 72 25
175 -13 241 -69 117 -211 175 -328 133z"/>
<path d="M4545 7078 c-40 -22 -47 -64 -17 -91 24 -22 55 -21 75 1 23 25 21 58
-3 82 -23 23 -28 24 -55 8z"/>
<path d="M4502 6929 c-149 -17 -279 -80 -392 -189 -114 -110 -193 -254 -227
-414 -20 -97 -13 -284 16 -384 76 -263 274 -463 521 -527 86 -23 245 -23 328
-1 255 68 445 264 524 541 32 114 32 306 0 420 -86 300 -315 515 -588 550 -96
12 -110 12 -182 4z m245 -160 c122 -40 246 -145 322 -273 105 -176 111 -448
14 -639 -62 -123 -160 -219 -284 -277 -94 -43 -171 -55 -277 -41 -241 30 -445
228 -498 481 -21 100 -14 261 15 350 64 199 244 374 421 409 30 6 64 13 75 15
38 9 150 -5 212 -25z"/>
<path d="M4533 6345 c-51 -22 -78 -83 -78 -180 0 -64 5 -89 23 -122 37 -70
113 -94 166 -52 96 75 92 289 -6 349 -38 23 -61 24 -105 5z"/>
<path d="M5357 6212 c-34 -37 -11 -92 38 -92 50 0 73 60 37 93 -24 22 -55 21
-75 -1z"/>
<path d="M3724 6165 c-21 -33 -6 -71 31 -81 34 -8 53 0 67 30 16 36 -11 76
-52 76 -21 0 -35 -8 -46 -25z"/>
<path d="M4588 5339 c-21 -12 -24 -69 -6 -87 21 -21 66 -14 84 12 32 50 -26
107 -78 75z"/>
<path d="M6931 6137 c-100 -35 -97 -188 5 -216 94 -26 172 54 142 144 -21 63
-83 94 -147 72z"/>
<path d="M8794 4206 c-38 -38 -45 -85 -20 -134 25 -48 88 -70 139 -48 47 19
67 51 67 106 -1 69 -43 110 -115 110 -29 0 -45 -8 -71 -34z"/>
<path d="M6925 2331 c-74 -32 -90 -135 -29 -192 20 -18 36 -24 74 -24 55 0 84
20 107 73 17 41 5 87 -31 121 -26 25 -89 36 -121 22z"/>
<path d="M6833 4511 c-261 -97 -354 -399 -192 -625 80 -112 209 -172 354 -164
152 8 282 96 348 236 30 62 32 75 32 172 0 98 -2 109 -32 171 -40 80 -120 160
-200 197 -79 36 -231 42 -310 13z"/>
<path d="M4493 4905 c-30 -30 -35 -40 -29 -67 10 -50 42 -78 91 -78 58 0 85
27 85 85 0 36 -5 47 -31 69 -42 36 -74 33 -116 -9z"/>
<path d="M4385 4684 c-143 -25 -323 -103 -445 -194 -78 -58 -200 -182 -262
-267 -106 -145 -193 -362 -224 -558 -38 -247 9 -550 118 -770 82 -163 221
-333 357 -436 94 -70 268 -154 386 -186 88 -23 119 -26 265 -27 148 -1 175 2
265 26 609 162 980 805 846 1465 -88 431 -369 767 -759 907 -153 55 -373 71
-547 40z m415 -234 c376 -105 654 -463 688 -887 17 -204 -17 -392 -103 -570
-123 -253 -339 -439 -595 -509 -101 -28 -320 -26 -425 4 -325 93 -567 353
-667 719 -18 66 -22 106 -22 263 -1 172 1 192 26 282 106 377 386 649 738 714
101 18 263 11 360 -16z"/>
<path d="M4488 3751 c-113 -72 -159 -273 -99 -432 35 -90 82 -136 165 -160 77
-22 174 48 217 158 28 74 31 212 4 287 -54 156 -175 218 -287 147z"/>
<path d="M5819 3552 c-64 -58 -27 -152 60 -152 93 0 123 123 40 165 -41 22
-65 18 -100 -13z"/>
<path d="M3265 3512 c-84 -17 -91 -134 -10 -168 65 -27 120 8 120 76 0 61 -51
103 -110 92z"/>
<path d="M4583 2150 c-30 -27 -36 -55 -23 -95 12 -36 51 -65 89 -65 27 0 77
45 85 75 8 30 -15 80 -43 95 -32 16 -85 12 -108 -10z"/>
</g>
</svg>
