<?xml version="1.0" standalone="no"?>
<!DOCTYPE svg PUBLIC "-//W3C//DTD SVG 20010904//EN"
 "http://www.w3.org/TR/2001/REC-SVG-20010904/DTD/svg10.dtd">
<svg version="1.0" xmlns="http://www.w3.org/2000/svg"
 width="1080.000000pt" height="1080.000000pt" viewBox="0 0 1080.000000 1080.000000"
 preserveAspectRatio="xMidYMid meet">

<g transform="translate(0.000000,1080.000000) scale(0.100000,-0.100000)"
fill="#000000" stroke="none">
<path d="M1211 8871 l-31 -29 0 -2451 0 -2451 29 -32 29 -33 2002 -3 2002 -2
-7 -42 c-19 -112 -74 -217 -150 -287 l-45 -41 -318 0 c-335 0 -393 -5 -476
-44 -51 -23 -286 -210 -286 -227 0 -11 2967 -12 2974 -1 8 13 -221 199 -279
227 -80 39 -139 45 -475 45 l-317 0 -36 28 c-48 39 -80 78 -110 137 -28 57
-57 148 -57 182 l0 23 1996 0 1996 0 34 34 34 34 0 2449 c0 2304 -1 2449 -18
2469 -9 12 -27 27 -39 33 -16 8 -1148 11 -4221 11 l-4200 0 -31 -29z"/>
</g>
</svg>
