<?xml version="1.0" standalone="no"?>
<!DOCTYPE svg PUBLIC "-//W3C//DTD SVG 20010904//EN"
 "http://www.w3.org/TR/2001/REC-SVG-20010904/DTD/svg10.dtd">
<svg version="1.0" xmlns="http://www.w3.org/2000/svg"
 width="1080.000000pt" height="1080.000000pt" viewBox="0 0 1080.000000 1080.000000"
 preserveAspectRatio="xMidYMid meet">

<g transform="translate(0.000000,1080.000000) scale(0.100000,-0.100000)"
fill="#000000" stroke="none">
<path d="M5000 7819 c-510 -45 -1012 -167 -1460 -356 -572 -241 -1066 -564
-1497 -977 -99 -95 -129 -130 -155 -184 -31 -62 -33 -73 -33 -172 0 -94 3
-111 28 -165 71 -151 234 -247 396 -231 101 9 178 51 285 154 472 457 1035
787 1676 982 152 46 465 111 645 135 867 112 1778 -68 2531 -501 291 -166 546
-358 819 -614 50 -47 113 -97 140 -112 192 -103 435 -26 534 170 59 116 59
247 1 361 -33 66 -219 251 -405 404 -791 649 -1703 1021 -2720 1107 -140 11
-647 11 -785 -1z"/>
<path d="M5040 6409 c-463 -44 -987 -205 -1386 -425 -372 -206 -828 -573 -904
-728 -57 -114 -59 -237 -7 -349 79 -170 283 -264 463 -212 81 23 111 43 249
169 449 407 959 648 1560 738 215 31 556 31 770 -1 317 -47 593 -131 860 -261
262 -128 471 -270 704 -481 165 -148 218 -174 352 -174 90 0 99 2 171 38 205
101 283 339 176 540 -80 150 -525 509 -873 704 -426 239 -918 392 -1424 443
-118 12 -585 11 -711 -1z"/>
<path d="M5260 4984 c-505 -34 -990 -241 -1360 -580 -94 -85 -126 -125 -159
-194 -23 -48 -26 -68 -26 -155 0 -91 3 -106 31 -166 44 -93 93 -142 182 -187
73 -35 81 -37 176 -37 92 0 107 3 167 31 42 20 97 60 150 109 237 218 529 348
847 377 410 37 800 -95 1112 -378 51 -46 111 -89 150 -108 60 -29 73 -31 170
-31 96 0 110 2 163 30 90 45 141 96 184 183 33 67 38 86 41 161 6 144 -38 232
-179 359 -348 311 -725 493 -1168 562 -122 19 -371 31 -481 24z"/>
<path d="M5285 3605 c-70 -26 -135 -84 -174 -155 -33 -60 -36 -71 -36 -150 0
-71 4 -94 27 -142 71 -153 237 -223 406 -173 69 21 161 105 193 177 35 78 34
193 -2 268 -31 66 -96 132 -158 162 -58 28 -196 35 -256 13z"/>
</g>
</svg>
